<?xml version="1.0" standalone="no"?>
<!DOCTYPE svg PUBLIC "-//W3C//DTD SVG 20010904//EN"
 "http://www.w3.org/TR/2001/REC-SVG-20010904/DTD/svg10.dtd">
<svg version="1.0" xmlns="http://www.w3.org/2000/svg"
 width="700.000000pt" height="700.000000pt" viewBox="0 0 700.000000 700.000000"
 preserveAspectRatio="xMidYMid meet">
<metadata>
Created by potrace 1.11, written by Peter Selinger 2001-2013
</metadata>
<g transform="translate(0.000000,700.000000) scale(0.100000,-0.100000)"
fill="#000000" stroke="none">
<path d="M3298 6995 c-1 -1 -41 -6 -88 -9 -47 -3 -94 -8 -105 -10 -11 -2 -47
-7 -80 -11 -73 -8 -270 -48 -360 -72 -77 -20 -75 -1 -25 -188 17 -66 33 -127
35 -135 13 -55 44 -162 48 -166 3 -3 25 0 48 6 50 14 56 15 159 35 41 8 95 18
120 21 25 3 52 7 60 9 100 26 686 26 780 0 8 -2 39 -7 69 -10 30 -4 63 -9 75
-11 12 -3 32 -7 46 -10 14 -3 63 -14 109 -25 46 -10 86 -17 89 -14 6 6 122
454 122 471 0 6 -12 14 -27 17 -16 3 -73 16 -128 27 -55 12 -116 24 -135 26
-19 3 -46 7 -60 9 -14 3 -61 9 -105 15 -44 6 -96 13 -115 16 -40 6 -526 14
-532 9z"/>
<path d="M1735 6518 c-94 -51 -390 -256 -445 -308 -9 -8 -43 -37 -76 -64 -100
-83 -355 -345 -447 -461 -85 -106 -214 -290 -270 -385 l-26 -45 142 -85 c78
-46 175 -103 215 -128 41 -24 75 -42 77 -40 1 1 22 35 45 73 53 87 195 290
220 315 3 3 32 37 65 75 61 72 205 218 285 291 95 85 337 260 425 307 61 33
61 31 26 86 -17 28 -31 53 -31 55 0 2 -37 69 -83 148 -46 78 -88 151 -93 160
-7 13 -13 14 -29 6z"/>
<path d="M5155 6362 c-55 -92 -105 -176 -111 -187 -5 -11 -18 -33 -28 -48 -11
-15 -17 -29 -15 -31 2 -2 54 -35 116 -74 377 -237 707 -571 927 -937 27 -44
50 -81 51 -83 2 -3 155 84 225 127 8 5 59 36 112 67 l98 58 -27 45 c-86 148
-220 334 -361 501 -97 115 -370 378 -445 429 -12 8 -24 17 -27 20 -28 32 -264
194 -370 255 l-46 26 -99 -168z"/>
<path d="M3390 5583 c-57 -109 -129 -247 -160 -308 -32 -60 -97 -186 -145
-280 -48 -93 -128 -249 -178 -345 -49 -96 -94 -180 -99 -186 -4 -6 -50 -17
-101 -24 -50 -8 -94 -14 -97 -15 -3 0 -26 -4 -51 -8 -67 -11 -95 -16 -184 -32
-44 -7 -98 -16 -120 -20 -22 -3 -67 -10 -100 -16 -33 -5 -69 -12 -80 -14 -11
-1 -36 -6 -55 -9 -40 -7 -49 -8 -220 -36 -69 -11 -138 -23 -155 -26 -30 -5
-50 -8 -115 -19 -94 -15 -158 -26 -183 -31 -27 -6 -25 -8 65 -99 51 -51 290
-291 532 -534 l438 -441 -6 -52 c-4 -29 -13 -91 -21 -138 -8 -47 -22 -132 -30
-190 -17 -114 -23 -151 -30 -190 -2 -14 -7 -45 -10 -70 -3 -25 -10 -70 -15
-100 -5 -30 -12 -73 -15 -95 -4 -22 -8 -51 -10 -65 -9 -56 -16 -97 -20 -125
-7 -53 -34 -226 -54 -345 -10 -63 -18 -116 -17 -117 1 -2 305 148 674 333
l672 336 672 -336 c370 -184 673 -334 674 -333 1 1 -4 37 -12 81 -7 43 -16 99
-19 125 -3 25 -7 57 -10 71 -2 14 -14 90 -25 170 -11 80 -25 170 -30 200 -5
30 -12 75 -15 100 -8 56 -14 98 -20 130 -3 14 -7 48 -10 75 -4 28 -8 57 -10
65 -2 8 -7 35 -10 60 -3 25 -11 74 -16 110 -32 208 -42 287 -38 297 4 10 261
276 801 827 130 132 235 242 234 243 -2 2 -160 31 -216 39 -19 3 -46 7 -60 10
-14 2 -38 7 -55 9 -16 3 -46 8 -65 11 -58 10 -73 12 -114 19 -21 3 -48 7 -60
10 -12 3 -34 7 -51 10 -30 5 -255 42 -310 51 -16 2 -41 6 -55 9 -14 3 -40 7
-57 10 -61 9 -98 16 -153 25 -30 5 -73 12 -95 15 -22 3 -51 8 -63 11 -13 3
-43 7 -65 10 -23 4 -46 7 -52 8 -11 1 -43 61 -365 681 -34 66 -88 170 -120
230 -32 61 -92 178 -135 260 -43 83 -79 151 -80 153 -2 2 -49 -86 -105 -195z"/>
<path d="M6815 4389 c-33 -9 -132 -36 -220 -59 -88 -22 -168 -43 -178 -46 -14
-4 -17 -12 -13 -27 11 -39 57 -271 63 -312 3 -22 6 -51 9 -65 13 -92 19 -211
19 -385 0 -173 -10 -369 -20 -385 -2 -3 -6 -30 -10 -60 -6 -50 -43 -236 -60
-302 -6 -25 -4 -28 32 -37 217 -56 435 -111 441 -111 7 0 17 37 48 165 5 20
38 209 48 275 28 182 29 733 2 900 -2 14 -7 46 -10 71 -18 131 -72 378 -85
390 -3 3 -33 -2 -66 -12z"/>
<path d="M95 4323 c-10 -43 -18 -79 -17 -80 0 -2 -3 -17 -8 -34 -5 -18 -12
-48 -15 -68 -3 -20 -7 -46 -9 -58 -3 -12 -7 -43 -11 -70 -4 -26 -9 -59 -11
-73 -19 -124 -27 -624 -12 -775 22 -209 89 -565 108 -565 13 0 472 119 477
123 2 3 -3 31 -11 63 -8 33 -17 73 -20 89 -3 17 -10 55 -16 85 -34 165 -45
306 -45 545 0 179 7 312 20 385 3 14 7 43 10 65 7 54 13 92 24 140 6 22 17 71
26 109 9 38 12 72 8 76 -8 6 -452 120 -470 120 -5 0 -18 -35 -28 -77z"/>
<path d="M683 1873 l-213 -126 27 -46 c60 -105 209 -314 310 -436 244 -296
524 -539 839 -730 l107 -66 40 68 c21 38 49 86 62 108 12 22 50 89 84 149 34
59 61 109 59 111 -2 1 -43 28 -93 59 -302 190 -561 423 -769 690 -69 88 -169
236 -206 304 -13 23 -26 42 -29 41 -3 0 -102 -57 -218 -126z"/>
<path d="M6048 1923 c-195 -320 -439 -586 -778 -846 -34 -27 -159 -107 -212
-136 -45 -26 -55 -36 -50 -50 4 -10 61 -108 126 -219 l119 -201 56 31 c31 17
58 34 61 37 3 3 32 24 65 45 103 66 301 217 371 281 6 5 46 42 89 80 66 60
172 171 290 306 87 99 244 320 319 450 l26 46 -73 42 c-39 23 -135 80 -212
126 -77 46 -142 84 -145 84 -3 1 -26 -34 -52 -76z"/>
<path d="M2723 588 c0 -13 -82 -316 -108 -402 -8 -26 -15 -54 -15 -60 0 -13
164 -54 327 -81 197 -34 294 -40 598 -40 327 0 495 20 803 92 39 9 72 21 72
26 0 5 -9 45 -21 90 -11 45 -23 89 -24 97 -69 288 -75 299 -133 278 -50 -17
-326 -65 -440 -75 -147 -14 -644 -5 -672 12 -3 2 -30 6 -60 10 -68 8 -211 37
-301 60 -18 4 -26 2 -26 -7z"/>
</g>
</svg>
