<svg width="79" height="79" xmlns="http://www.w3.org/2000/svg"><path d="M39.5 0C36 0 32.6.5 29.3 1.4l1.4 5.4a33.8 33.8 0 0117.6 0l1.4-5.5C46.4.5 43 0 39.5 0zM19.8 5.3c-6 3.5-11 8.4-14.5 14.4l4.9 2.9c3-5.2 7.2-9.5 12.4-12.4l-2.8-4.9zm39.5 0l-2.9 4.9c5.2 3 9.5 7.2 12.4 12.4l4.9-2.9c-3.5-6-8.4-11-14.4-14.4zm-19.8 8.3L37 18.4l-5.3 10.3-16.8 2.8 12 12.1-2.6 16.8 15.2-7.6 15.2 7.6-2.5-16.8L64 31.5l-16.8-2.8-7.8-15zm38.1 15.7l-5.4 1.4a33.9 33.9 0 010 17.6l5.5 1.4a39.5 39.5 0 000-20.4zm-76.3 0a39.5 39.5 0 000 20.4l5.5-1.4a33.9 33.9 0 010-17.6l-5.5-1.4zm8.9 27.1l-4.9 2.9c3.5 6 8.4 11 14.5 14.4l2.8-4.9c-5.2-3-9.5-7.2-12.4-12.4zm58.6 0c-3 5.2-7.2 9.5-12.4 12.4l2.9 4.9c6-3.5 11-8.4 14.4-14.4l-4.9-2.9zm-38 15.8l-1.5 5.5a39.5 39.5 0 0020.4 0l-1.4-5.5a33.9 33.9 0 01-17.6 0z" fill="#FF008C" fill-rule="nonzero"/></svg>