<svg width="440" height="79" xmlns="http://www.w3.org/2000/svg"><g fill-rule="nonzero" fill="none"><path d="M132.3 72.5c-5 0-9.5-.8-13.6-2.4A31 31 0 0198 40v-.1a32.2 32.2 0 0120.4-30.3A36 36 0 01131.9 7c5.6 0 10.4.8 14.5 2.4 4 1.7 7.7 3.9 11 6.8l-10.2 12.3c-2.3-2-4.6-3.4-7-4.4-2.3-1-5-1.5-8.2-1.5a15 15 0 00-11.4 5 17.7 17.7 0 00-4.7 12.3v.1c0 2.6.4 4.9 1.3 7a15.8 15.8 0 009 9.2c2 .9 4.3 1.3 6.8 1.3 4 0 7.4-.9 10-2.6v-7.7h-12.3V34.4h29v28.4c-3.4 2.8-7.4 5-12 7a40.7 40.7 0 01-15.4 2.7zm37.4-64.2h17.6v63h-17.6v-63zm29.1 0h50.4v15.3h-33v10.7h29.9v14.5h-29.8v22.5h-17.5v-63zm92.4 38.1l-7-17.9-7.1 18h14.1zM275.9 7.8h16.8l26.9 63.5h-18.8L296.2 60H272l-4.5 11.3h-18.3l26.8-63.5zm75.5 31.8c3.1 0 5.6-.8 7.3-2.2a7.4 7.4 0 002.7-6v-.2c0-2.7-.9-4.7-2.7-6.2a11.6 11.6 0 00-7.4-2h-8.2v16.6h8.3zM325.7 8.3h27c4 0 7.5.5 10.8 1.4 3.2 1 6 2.5 8.3 4.4a19 19 0 015.2 7c1.2 2.7 1.9 5.8 1.9 9.3v.2c0 3.7-.7 7-2 9.8a20 20 0 01-5.7 7.1c-2.4 2-5.3 3.4-8.6 4.3a39 39 0 01-10.8 1.5H343v18h-17.4v-63zM412 39.6c3.1 0 5.5-.8 7.3-2.2a7.4 7.4 0 002.7-6v-.2c0-2.7-1-4.7-2.7-6.2a11.6 11.6 0 00-7.4-2h-8.2v16.6h8.3zM386.2 8.3h27c4 0 7.6.5 10.8 1.4 3.3 1 6 2.5 8.3 4.4a19 19 0 015.3 7c1.2 2.7 1.8 5.8 1.8 9.3v.2c0 3.7-.6 7-2 9.8a20 20 0 01-5.6 7.1c-2.4 2-5.3 3.4-8.6 4.3a39 39 0 01-10.9 1.5h-8.6v18h-17.5v-63z" fill="#31001B"/><path d="M39.5 0C36 0 32.6.5 29.3 1.4l1.4 5.4a33.8 33.8 0 0117.6 0l1.4-5.5C46.4.5 43 0 39.5 0zM19.8 5.3c-6 3.5-11 8.4-14.5 14.4l4.9 2.9c3-5.2 7.2-9.5 12.4-12.4l-2.8-4.9zm39.5 0l-2.9 4.9c5.2 3 9.5 7.2 12.4 12.4l4.9-2.9c-3.5-6-8.4-11-14.4-14.4zm-19.8 8.3L37 18.4l-5.3 10.3-16.8 2.8 12 12.1-2.6 16.8 15.2-7.6 15.2 7.6-2.5-16.8L64 31.5l-16.8-2.8-7.8-15zm38.1 15.7l-5.4 1.4a33.9 33.9 0 010 17.6l5.5 1.4a39.5 39.5 0 000-20.4zm-76.3 0a39.5 39.5 0 000 20.4l5.5-1.4a33.9 33.9 0 010-17.6l-5.5-1.4zm8.9 27.1l-4.9 2.9c3.5 6 8.4 11 14.5 14.4l2.8-4.9c-5.2-3-9.5-7.2-12.4-12.4zm58.6 0c-3 5.2-7.2 9.5-12.4 12.4l2.9 4.9c6-3.5 11-8.4 14.4-14.4l-4.9-2.9zm-38 15.8l-1.5 5.5a39.5 39.5 0 0020.4 0l-1.4-5.5a33.9 33.9 0 01-17.6 0z" fill="#FF008C"/></g></svg>